<svg width="14" height="14" viewBox="0 0 14 14" fill="none" xmlns="http://www.w3.org/2000/svg">
<path d="M7.00006 3.52734C4.79479 3.52734 3.18014 4.6457 2.04127 7C3.18014 9.3543 4.79479 10.4727 7.00006 10.4727C9.2067 10.4727 10.8214 9.3543 11.9588 7C10.82 4.6457 9.20533 3.52734 7.00006 3.52734ZM6.94537 9.40625C5.61647 9.40625 4.53912 8.32891 4.53912 7C4.53912 5.67109 5.61647 4.59375 6.94537 4.59375C8.27428 4.59375 9.35162 5.67109 9.35162 7C9.35162 8.32891 8.27428 9.40625 6.94537 9.40625Z" fill="#E6F7FF"/>
<path d="M12.8817 6.64727C11.5856 3.91699 9.62639 2.54297 7.00002 2.54297C4.37228 2.54297 2.41447 3.91699 1.11838 6.64863C1.06639 6.75871 1.03943 6.87894 1.03943 7.00068C1.03943 7.12242 1.06639 7.24265 1.11838 7.35273C2.41447 10.083 4.37365 11.457 7.00002 11.457C9.62775 11.457 11.5856 10.083 12.8817 7.35137C12.9869 7.12988 12.9869 6.87285 12.8817 6.64727ZM7.00002 10.4727C4.79474 10.4727 3.1801 9.3543 2.04123 7C3.1801 4.6457 4.79474 3.52734 7.00002 3.52734C9.20529 3.52734 10.8199 4.6457 11.9588 7C10.8213 9.3543 9.20666 10.4727 7.00002 10.4727Z" fill="#1890FF"/>
<path d="M6.9453 4.59375C5.61639 4.59375 4.53905 5.67109 4.53905 7C4.53905 8.32891 5.61639 9.40625 6.9453 9.40625C8.27421 9.40625 9.35155 8.32891 9.35155 7C9.35155 5.67109 8.27421 4.59375 6.9453 4.59375ZM6.9453 8.53125C6.09901 8.53125 5.41405 7.84629 5.41405 7C5.41405 6.15371 6.09901 5.46875 6.9453 5.46875C7.79159 5.46875 8.47655 6.15371 8.47655 7C8.47655 7.84629 7.79159 8.53125 6.9453 8.53125Z" fill="#1890FF"/>
</svg>
